HIERARCHY
ROOT Hips
{
 OFFSET 0.000000 0.000000 0.000000
 CHANNELS 6 Xposition Yposition Zposition Yrotation Xrotation Zrotation
 JOINT Chest
 {
  OFFSET 0.000000 9.585900 0.002600
  CHANNELS 3 Yrotation Xrotation Zrotation
  JOINT Chest2
  {
   OFFSET 0.000000 9.601200 -0.005300
   CHANNELS 3 Yrotation Xrotation Zrotation
   JOINT Chest3
   {
    OFFSET 0.000000 9.561800 0.000000
    CHANNELS 3 Yrotation Xrotation Zrotation
    JOINT Chest4
    {
     OFFSET 0.000000 9.552100 0.000000
     CHANNELS 3 Yrotation Xrotation Zrotation
     JOINT Neck
     {
      OFFSET 0.000000 14.453000 0.000000
      CHANNELS 3 Yrotation Xrotation Zrotation
      JOINT Head
      {
       OFFSET 0.000000 8.936500 -0.011300
       CHANNELS 3 Yrotation Xrotation Zrotation
       End Site
       {
        OFFSET 0.000000 17.073600 -0.006000
       }
      }
     }
     JOINT RightCollar
     {
      OFFSET -2.921100 9.558500 0.000000
      CHANNELS 3 Yrotation Xrotation Zrotation
      JOINT RightShoulder
      {
       OFFSET -13.519700 0.000000 0.000000
       CHANNELS 3 Yrotation Xrotation Zrotation
       JOINT RightElbow
       {
        OFFSET 0.000000 -29.696600 0.000000
        CHANNELS 3 Yrotation Xrotation Zrotation
        JOINT RightWrist
        {
         OFFSET 0.000000 -24.004700 0.000000
         CHANNELS 3 Yrotation Xrotation Zrotation
         End Site
         {
          OFFSET 0.000000 -17.728500 0.000000
         }
        }
       }
      }
     }
     JOINT LeftCollar
     {
      OFFSET 2.921100 9.558500 0.000000
      CHANNELS 3 Yrotation Xrotation Zrotation
      JOINT LeftShoulder
      {
       OFFSET 13.519700 0.000000 0.000000
       CHANNELS 3 Yrotation Xrotation Zrotation
       JOINT LeftElbow
       {
        OFFSET 0.000000 -29.696600 0.000000
        CHANNELS 3 Yrotation Xrotation Zrotation
        JOINT LeftWrist
        {
         OFFSET 0.000000 -24.004700 0.000000
         CHANNELS 3 Yrotation Xrotation Zrotation
         End Site
         {
          OFFSET 0.000000 -17.728500 0.000000
         }
        }
       }
      }
     }
    }
   }
  }
 }
 JOINT RightHip
 {
  OFFSET -7.771700 -0.012900 -0.001300
  CHANNELS 3 Yrotation Xrotation Zrotation
  JOINT RightKnee
  {
   OFFSET 0.000000 -40.869800 0.001200
   CHANNELS 3 Yrotation Xrotation Zrotation
   JOINT RightAnkle
   {
    OFFSET 0.000000 -39.717900 0.002100
    CHANNELS 3 Yrotation Xrotation Zrotation
    JOINT RightToe
    {
     OFFSET 0.000000 -4.965400 11.033500
     CHANNELS 3 Yrotation Xrotation Zrotation
     End Site
     {
      OFFSET 0.000000 -1.423100 5.872300
     }
    }
   }
  }
 }
 JOINT LeftHip
 {
  OFFSET 7.771700 -0.012900 -0.001300
  CHANNELS 3 Yrotation Xrotation Zrotation
  JOINT LeftKnee
  {
   OFFSET 0.000000 -40.869800 0.001200
   CHANNELS 3 Yrotation Xrotation Zrotation
   JOINT LeftAnkle
   {
    OFFSET 0.000000 -39.717900 0.002100
    CHANNELS 3 Yrotation Xrotation Zrotation
    JOINT LeftToe
    {
     OFFSET 0.000000 -4.965400 11.033500
     CHANNELS 3 Yrotation Xrotation Zrotation
     End Site
     {
      OFFSET 0.000000 -1.423100 5.872300
     }
    }
   }
  }
 }
}
MOTION
Frames: 7
Frame Time: 0.008333
0.000000 85.388000 0.000000 0.000000 -5.767877 0.000000 0.000000 11.653817 0.000000 0.000000 -5.885947 0.000000 0.000000 -0.000000 0.000000 0.000000 -0.000000 0.000000 0.000000 12.528835 0.000000 0.000000 0.711642 0.000000 0.000000 -0.000000 0.000000 0.000000 0.000000 -90.000000 0.000000 -2.309062 0.000000 0.000000 2.309062 0.000000 0.000000 -0.000000 0.000000 0.000000 -0.000000 90.000000 0.000000 -2.309062 0.000000 0.000000 2.309062 0.000000 0.000000 8.520406 0.000000 0.000000 1.905762 0.000000 -0.000000 -4.658285 0.000000 0.000000 -0.000000 0.000000 0.000000 8.520406 0.000000 0.000000 1.905762 0.000000 -0.000000 -4.658285 0.000000 0.000000 -0.000000 0.000000
-120.031758 62.064715 19.604764 176.546566 -51.808042 -0.311971 5.071237 26.683556 1.459531 0.725317 4.549380 0.220250 1.163631 7.187888 0.393042 3.797399 21.643386 1.701652 -0.508555 14.992990 1.898042 -1.628786 -7.833417 3.695402 5.328250 4.967233 5.818538 -2.448082 -6.899672 -13.841230 -100.172410 -53.982080 139.596982 9.792943 14.965989 3.619587 -8.379916 3.190745 0.189904 -7.632111 -9.203865 17.081864 108.018093 -69.689167 -140.729039 5.469473 7.823691 -10.463082 3.840996 -15.115840 -6.503312 -2.242334 59.227343 -6.573721 0.297254 -7.433147 10.095584 0.389436 -0.801690 0.169538 -5.390174 -11.806463 0.544332 32.208327 74.057156 34.669774 1.445991 -10.612839 -6.397025 0.275532 0.920612 0.107826
-120.039642 62.064895 19.600951 176.571442 -51.806800 -0.301871 5.041047 26.677075 1.431936 0.723056 4.512642 0.243032 1.158181 7.171533 0.400310 3.788246 21.623352 1.724331 -0.516386 15.081791 1.841811 -1.500142 -7.701909 3.645684 5.295369 4.950386 5.785743 -2.425774 -6.803784 -13.857784 -100.475251 -53.964489 139.877147 9.826296 15.054172 3.483819 -8.425682 3.195282 0.153795 -7.683948 -9.111788 17.117290 108.496888 -69.638860 -141.128099 5.524569 7.804600 -10.434208 3.828015 -15.114090 -6.533951 -2.241170 59.230949 -6.574827 0.260796 -7.417508 10.080162 0.429728 -0.818031 0.188312 -5.399596 -11.810709 0.511053 32.218755 74.059217 34.681582 1.408835 -10.642607 -6.404895 0.311401 0.941879 0.126400
-120.043334 62.064525 19.596843 176.580847 -51.802085 -0.307821 5.034122 26.663958 1.436163 0.716560 4.486546 0.258669 1.153217 7.157467 0.404674 3.778689 21.606357 1.737868 -0.471131 15.168461 1.811479 -1.372971 -7.569879 3.588275 5.270965 4.906281 5.771135 -2.380378 -6.734362 -13.853301 -100.833526 -53.972801 140.187996 9.880864 15.160917 3.332796 -8.458723 3.175341 0.141285 -7.711740 -9.016954 17.127071 109.022649 -69.599040 -141.597082 5.586815 7.754344 -10.437803 3.819103 -15.118215 -6.536665 -2.239291 59.236647 -6.576590 0.259959 -7.425432 10.078941 0.429795 -0.818864 0.190506 -5.403413 -11.817712 0.504916 32.231381 74.064349 34.697760 1.404812 -10.645442 -6.402897 0.317658 0.939452 0.129568
-120.041204 62.066005 19.590631 176.572912 -51.812762 -0.336754 5.052748 26.647283 1.494099 0.710520 4.478772 0.258865 1.142846 7.123644 0.416760 3.764806 21.584113 1.753340 -0.346846 15.266181 1.803884 -1.263864 -7.413774 3.510242 5.253143 4.874974 5.753931 -2.272581 -6.687395 -13.829981 -101.322217 -54.017817 140.559421 9.950890 15.285401 3.155551 -8.477555 3.178581 0.108533 -7.739744 -8.926160 17.140592 109.644451 -69.533329 -142.184768 5.667097 7.710424 -10.437425 3.814060 -15.110350 -6.500808 -2.247991 59.250074 -6.587057 0.298292 -7.456409 10.088636 0.390676 -0.809744 0.178727 -5.404320 -11.807056 0.534515 32.241004 74.084311 34.706634 1.453732 -10.630359 -6.383245 0.279569 0.913389 0.110709
-120.044386 62.065302 19.584813 176.589938 -51.808679 -0.355590 5.032445 26.608590 1.519535 0.715335 4.501749 0.240978 1.125292 7.051994 0.445860 3.750009 21.556094 1.771234 -0.227861 15.369854 1.789488 -1.081620 -7.225730 3.424284 5.234072 4.860423 5.735119 -2.164172 -6.601513 -13.836453 -102.037841 -54.030329 141.141453 10.043332 15.423736 2.946319 -8.496867 3.188155 0.065300 -7.759145 -8.821339 17.150072 110.302386 -69.426258 -142.825593 5.746846 7.673339 -10.428535 3.801452 -15.113620 -6.496733 -2.258187 59.256825 -6.598125 0.300969 -7.462414 10.094209 0.391113 -0.813082 0.175662 -5.414450 -11.817415 0.535732 32.259606 74.101812 34.726738 1.463769 -10.633052 -6.379414 0.276083 0.905619 0.112385
-120.048511 62.062280 19.579892 176.610174 -51.789175 -0.372670 4.983896 26.491051 1.561116 0.709138 4.484524 0.239570 1.127438 7.069802 0.430952 3.735155 21.521961 1.791226 -0.100361 15.487148 1.767980 -0.832567 -7.012375 3.334819 5.209067 4.866919 5.713538 -2.099200 -6.480996 -13.866895 -103.016658 -54.009558 141.996160 10.168465 15.560414 2.702366 -8.519964 3.203296 0.015607 -7.773063 -8.697403 17.153924 110.974373 -69.287285 -143.482859 5.831103 7.617492 -10.418714 3.790478 -15.130772 -6.501705 -2.260502 59.260742 -6.597660 0.301473 -7.475503 10.099559 0.387338 -0.806776 0.172139 -5.424144 -11.850957 0.530417 32.304160 74.118588 34.777278 1.466718 -10.618115 -6.366562 0.270939 0.883590 0.103947
